<svg id="Layer_1" data-name="Layer 1" xmlns="http://www.w3.org/2000/svg" xmlns:xlink="http://www.w3.org/1999/xlink" viewBox="0 0 463.84 175.94"><defs><style>.cls-1{fill:none;}.cls-2{clip-path:url(#clip-path);}.cls-3{fill:#fff;}.cls-4{fill:#353e50;}.cls-5{clip-path:url(#clip-path-9);}.cls-6{fill:url(#linear-gradient);}</style><clipPath id="clip-path"><rect class="cls-1" x="-89.18" y="-112.08" width="640" height="400"/></clipPath><clipPath id="clip-path-9"><path class="cls-1" d="M54.32,122.52a5.34,5.34,0,0,1,.24-5.47l28-42.42a5.34,5.34,0,0,1,8.92,5.88L68.94,114.64h58.35a5.35,5.35,0,0,1,0,10.7H59a5.37,5.37,0,0,1-4.7-2.82m-.64-66.66A5.34,5.34,0,0,1,59,50.51H127.3a5.34,5.34,0,0,1,4.46,8.28L103.82,101.2a5.35,5.35,0,1,1-8.93-5.88l22.48-34.13H59a5.32,5.32,0,0,1-5.34-5.33M13.16,87.92a80,80,0,1,0,80-80,80,80,0,0,0-80,80"/></clipPath><linearGradient id="linear-gradient" x1="-288.92" y1="-60.77" x2="-287.92" y2="-60.77" gradientTransform="translate(46240.15 9811.36) scale(160)" gradientUnits="userSpaceOnUse"><stop offset="0" stop-color="#3bc9cd"/><stop offset="1" stop-color="#39c"/></linearGradient></defs><title>SVG-2Artboard 1</title><g class="cls-2"><path class="cls-3" d="M30.82,87.92a62,62,0,1,1,62,62,62,62,0,0,1-62-62"/></g><g class="cls-2"><path class="cls-4" d="M224.33,68.17v2.61c0,7.52-2.3,12.33-7.42,14.73,6.17,2.4,8.57,7.94,8.57,15.67v5.95c0,11.29-6,17.35-17.45,17.35H190V51.33H207.3c11.91,0,17,5.55,17,16.84M201.44,61.8V81.13h4.5c4.28,0,6.89-1.88,6.89-7.74V69.32c0-5.22-1.78-7.52-5.85-7.52Zm0,29.78V114H208c3.87,0,6-1.77,6-7.2v-6.38c0-6.78-2.19-8.88-7.42-8.88Z"/></g><g class="cls-2"><rect class="cls-4" x="232.38" y="51.34" width="11.49" height="73.15"/></g><g class="cls-2"><polygon class="cls-4" points="284.1 51.34 284.1 61.59 262.26 114.04 284.1 114.04 284.1 124.49 250.46 124.49 250.46 114.25 272.3 61.8 251.5 61.8 251.5 51.34 284.1 51.34"/></g><g class="cls-2"><polygon class="cls-4" points="322.77 51.34 322.77 61.59 300.93 114.04 322.77 114.04 322.77 124.49 289.12 124.49 289.12 114.25 310.96 61.8 290.17 61.8 290.17 51.34 322.77 51.34"/></g><g class="cls-2"><path class="cls-4" d="M366.76,124.49h-11.6l-2-13.27h-14.1l-2,13.27H326.53l11.71-73.15h16.82ZM340.53,101.3H351.6l-5.54-37Z"/></g><g class="cls-2"><path class="cls-4" d="M406.47,68.17v2.61c0,7.52-2.29,12.33-7.42,14.73,6.17,2.4,8.57,7.94,8.57,15.67v5.95c0,11.29-5.95,17.35-17.45,17.35H372.09V51.33h17.34c11.92,0,17,5.55,17,16.84M383.59,61.8V81.13h4.49c4.28,0,6.89-1.88,6.89-7.74V69.32c0-5.22-1.78-7.52-5.85-7.52Zm0,29.78V114h6.58c3.86,0,5.95-1.77,5.95-7.2v-6.38c0-6.78-2.19-8.88-7.41-8.88Z"/></g><g class="cls-2"><path class="cls-4" d="M413.58,68.9c0-11.7,6.16-18.39,17.44-18.39s17.45,6.69,17.45,18.39v38c0,11.7-6.16,18.39-17.45,18.39s-17.44-6.68-17.44-18.39Zm11.5,38.77c0,5.22,2.29,7.21,5.95,7.21s6-2,6-7.21V68.18c0-5.23-2.3-7.21-6-7.21s-5.95,2-5.95,7.21Z"/></g><g class="cls-5"><rect class="cls-6" x="13.16" y="7.92" width="160" height="160"/></g></svg>